<?xml version="1.0" encoding="utf-8"?>
<!-- Generator: Adobe Illustrator 18.1.1, SVG Export Plug-In . SVG Version: 6.00 Build 0)  -->
<svg version="1.1" id="Шар_1" xmlns="http://www.w3.org/2000/svg" xmlns:xlink="http://www.w3.org/1999/xlink" x="0px" y="0px"
	 viewBox="0 0 360 360" enable-background="new 0 0 360 360" xml:space="preserve">
<g id="Large">
	<g>
		<path fill="none" stroke="#929292" stroke-width="8" stroke-linecap="round" stroke-miterlimit="10" d="M26.5,134.8
			C22.3,149.2,20,164.3,20,180c0,17.7,2.9,34.7,8.2,50.6"/>
		<path fill="none" stroke="#929292" stroke-width="8" stroke-linecap="round" stroke-miterlimit="10" d="M178.2,20
			c-62.5,0.7-116.4,37.2-142.1,90"/>
		<path fill="none" stroke="#929292" stroke-width="8" stroke-linecap="round" stroke-miterlimit="10" d="M340,175.4
			c-2.2-77.9-60.1-141.8-135.2-153.5"/>
		<path fill="none" stroke="#929292" stroke-width="8" stroke-linecap="round" stroke-miterlimit="10" d="M170.6,316.6
			c-3.2,8.8-6.4,16.4-9.2,22.3"/>
		<path fill="none" stroke="#929292" stroke-width="8" stroke-linecap="round" stroke-miterlimit="10" d="M180,180
			c0,0,10.4,42.2,2.7,90.3c-1.2,7.2-2.6,14.2-4.3,20.8"/>
		<path fill="none" stroke="#929292" stroke-width="8" stroke-linecap="round" stroke-miterlimit="10" d="M210.6,261.2
			c-0.3,3-0.8,6.1-1.3,9.1c-4.8,29.9-13.4,55.2-19.1,69.7"/>
		<path fill="none" stroke="#929292" stroke-width="8" stroke-linecap="round" stroke-miterlimit="10" d="M133.9,333.2
			c7.5-14.8,16.8-36.9,21.3-62.8c6.6-38.3,0.9-73.3-1.4-85.7c-0.3-1.5-0.4-3.1-0.4-4.7c0-14.7,11.9-26.7,26.7-26.7
			c12.6,0,23.2,8.8,26,20.6c0,0,6.2,27,6.1,60.6"/>
		<path fill="none" stroke="#929292" stroke-width="8" stroke-linecap="round" stroke-miterlimit="10" d="M318.1,227.9
			c0.2,10.6,0.1,22.1-0.6,34.1"/>
		<path fill="none" stroke="#929292" stroke-width="8" stroke-linecap="round" stroke-miterlimit="10" d="M127.7,57.3
			c16.1-6.8,33.7-10.6,52.3-10.6c67.3,0,123.2,50.2,132.2,115c0,0,2.9,15.5,4.6,39.6"/>
		<path fill="none" stroke="#929292" stroke-width="8" stroke-linecap="round" stroke-miterlimit="10" d="M46.2,267.7
			c1.6-4.1,3-8.4,4-12.9c3.8-16.5,0.6-39.9-1.7-52.6c-1.2-7.2-1.8-14.6-1.8-22.2c0-45.6,22.9-85.9,57.8-109.9"/>
		<path fill="none" stroke="#929292" stroke-width="8" stroke-linecap="round" stroke-miterlimit="10" d="M206.5,76.7
			c-8.5-2.2-17.4-3.3-26.5-3.3c-58.9,0-106.7,47.8-106.7,106.7c0,5.5,0.4,11,1.2,16.3c2.5,13.9,5.8,37.6,1.4,61.5
			c-2.3,12.6-6.5,23.9-11.2,33.4"/>
		<path fill="none" stroke="#929292" stroke-width="8" stroke-linecap="round" stroke-miterlimit="10" d="M286.3,299.5
			c1-5.5,1.8-11.3,2.6-17.1c7.8-61.6-3.4-118.4-3.4-118.4c-5.1-33.5-25.7-61.8-54.2-77.5"/>
		<path fill="none" stroke="#929292" stroke-width="8" stroke-linecap="round" stroke-miterlimit="10" d="M255.9,154.6
			c1,3,1.9,6.1,2.5,9.3c3.1,16.3,9.8,56.6,5.4,101.4c-2.1,21.5-6,40.9-10.2,56.8"/>
		<path fill="none" stroke="#929292" stroke-width="8" stroke-linecap="round" stroke-miterlimit="10" d="M103.9,250
			c3.3-30.4-2.4-54.4-2.4-54.4c-1-5.1-1.5-10.3-1.5-15.6c0-44.2,35.8-80,80-80c25.7,0,48.5,12.1,63.2,30.9"/>
		<path fill="none" stroke="#929292" stroke-width="8" stroke-linecap="round" stroke-miterlimit="10" d="M85.7,309.4
			c4.8-9.3,9.6-20.6,13.2-33.1"/>
		<path fill="none" stroke="#929292" stroke-width="8" stroke-linecap="round" stroke-miterlimit="10" d="M161.6,129.9
			c5.7-2.1,11.9-3.2,18.4-3.2c25.7,0,47.2,18.1,52.2,42.4c2.8,13.7,9.6,52.9,4.8,96.8c-3.1,27.8-9.7,51.9-15.5,68.9"/>
		<path fill="none" stroke="#929292" stroke-width="8" stroke-linecap="round" stroke-miterlimit="10" d="M109.1,323.5
			c7.9-15.1,16.1-35,19.6-56.8c5.2-33,1.3-62.5-1.2-77.1c-0.6-3.2-0.8-6.2-0.8-9.6c0-13.5,5-25.8,13.2-35.1"/>
	</g>
</g>
</svg>
